P2
# Creator: Stefan Evanghelides
20 15
15
15
15
15
15
15
15
15
15
15
15
15
15
15
15
15
15
15
15
15
15
15
13
12
12
14
13
12
12
12
14
15
15
15
13
12
12
14
15
15
15
13
8
0
0
4
8
0
0
0
4
12
12
12
8
0
0
4
14
15
15
9
0
0
0
0
2
1
0
0
0
0
0
0
0
0
0
0
4
14
15
11
1
0
0
2
7
11
3
1
0
0
2
3
3
3
1
0
0
6
15
15
9
0
0
6
15
15
15
9
0
0
6
15
15
15
9
0
0
6
15
15
9
0
0
6
15
15
15
9
0
0
6
15
15
15
9
0
0
6
15
15
9
0
0
6
15
15
15
9
0
0
6
15
15
15
9
0
0
6
15
15
9
0
0
6
15
15
15
9
0
0
6
15
15
15
9
0
0
6
15
15
9
0
2
7
15
15
15
9
0
0
6
15
15
15
9
0
0
6
15
15
9
0
4
14
15
15
15
9
0
0
6
15
15
15
9
0
0
6
15
13
8
0
0
4
14
15
13
8
0
0
4
14
15
13
8
0
0
4
14
9
0
2
1
2
7
15
9
0
0
0
0
6
15
9
0
0
0
0
6
11
3
7
11
7
15
15
11
3
3
3
3
7
15
11
3
3
3
3
7
15
15
15
15
15
15
15
15
15
15
15
15
15
15
15
15
15
15
15
15
