P2
# Creator: Stefan Evanghelides
21 16
255
190
187
181
178
186
188
189
190
186
185
190
193
187
186
180
177
182
184
193
194
195
187
185
173
147
153
179
183
174
170
170
175
179
189
193
187
182
182
183
187
191
193
184
168
112
71
102
159
108
93
85
101
140
166
165
149
132
115
131
174
185
184
185
160
84
62
55
82
85
59
56
60
57
82
138
77
67
63
63
71
93
159
187
190
177
115
63
56
69
130
159
128
77
56
62
69
90
134
99
65
58
54
113
187
192
188
185
96
49
116
194
185
194
159
67
55
83
180
193
185
147
63
56
80
170
195
183
183
97
51
124
185
179
191
167
69
53
103
193
187
188
170
76
61
74
157
195
185
180
92
51
126
186
180
191
153
58
54
108
184
180
189
158
67
57
67
152
191
182
179
95
55
135
190
177
186
161
64
54
106
184
186
192
165
75
62
93
181
187
181
171
83
53
139
187
179
186
157
68
58
94
187
188
189
167
75
61
112
186
187
179
156
70
62
140
191
182
181
151
63
51
102
186
188
181
167
83
54
125
189
185
188
149
68
59
132
200
182
190
155
59
51
103
191
188
187
183
92
51
109
186
188
180
85
55
58
71
136
186
160
98
47
48
73
123
175
169
111
60
51
71
94
152
191
135
113
141
125
151
190
145
92
94
70
80
100
176
156
85
80
85
90
64
153
195
196
198
199
201
203
195
198
194
194
177
183
190
189
188
188
181
181
184
165
188
197
197
198
195
193
197
198
197
199
195
198
198
198
194
193
192
193
188
195
197
195
