P2
# Creator: Stefan Evanghelides
26 20
255
190
188
184
180
179
184
187
189
189
189
186
185
188
192
192
187
186
182
178
178
182
184
190
194
194
195
188
187
182
171
160
165
178
186
185
180
177
177
179
182
185
189
192
188
184
182
183
184
187
191
193
194
186
182
162
131
111
127
161
159
142
133
129
135
150
165
175
179
175
167
156
152
161
178
186
187
188
189
176
154
119
84
68
93
128
112
84
77
76
83
107
139
156
139
126
115
104
101
115
146
170
182
185
186
161
111
73
59
59
79
89
80
68
64
62
58
69
102
120
81
76
71
66
65
72
87
133
172
189
190
174
132
85
59
58
71
112
141
140
112
78
59
60
69
79
91
121
109
82
64
59
58
97
153
190
192
185
173
124
71
58
100
160
181
180
169
134
78
57
62
93
152
174
169
146
107
62
56
75
131
183
194
186
189
142
78
60
118
176
189
188
191
163
89
56
66
114
186
192
191
180
139
72
60
68
117
175
194
183
185
139
77
61
120
172
183
184
187
160
86
53
71
124
187
187
188
182
144
75
62
64
110
169
193
185
184
135
74
62
122
173
184
184
185
152
78
51
73
125
180
182
187
179
136
70
59
63
110
168
190
182
182
136
77
66
129
177
184
181
183
157
83
53
72
123
180
185
191
183
142
75
62
78
133
183
187
181
178
130
72
65
132
177
184
181
182
156
86
57
70
116
182
188
190
183
144
77
63
90
146
188
187
180
170
118
66
69
134
179
186
182
179
152
84
55
69
117
182
188
187
180
146
80
61
98
155
189
186
182
165
110
62
72
134
183
189
183
179
151
81
51
69
122
185
189
185
181
152
86
57
97
157
191
187
186
157
101
60
68
121
177
188
184
180
146
76
49
67
117
179
186
186
183
154
87
56
85
140
180
184
180
120
71
56
62
79
128
171
181
153
106
60
46
59
88
132
170
176
150
105
64
53
67
89
120
155
187
138
101
99
113
108
134
172
177
137
93
79
66
64
79
106
163
168
127
82
72
72
79
72
92
150
193
175
161
163
172
166
174
188
186
166
145
145
133
126
133
146
176
177
155
133
131
134
137
123
128
169
196
197
199
200
199
201
203
199
197
199
199
198
191
188
192
195
192
190
191
191
188
186
189
184
181
191
197
197
198
197
195
193
196
198
198
197
199
196
197
198
198
198
195
193
192
192
193
189
193
196
196
195
