P2
# CREATOR: GIMP PNM Filter Version 1.1
20 15
255
255
255
255
255
255
255
255
255
255
255
255
255
255
255
255
255
255
255
255
255
255
221
204
204
238
221
204
204
204
238
255
255
255
221
204
204
238
255
255
255
221
136
0
0
68
136
0
0
0
68
204
204
204
136
0
0
68
238
255
255
153
0
0
0
0
34
17
0
0
0
0
0
0
0
0
0
0
68
238
255
187
17
0
0
34
119
187
51
17
0
0
34
51
51
51
17
0
0
102
255
255
153
0
0
102
255
255
255
153
0
0
102
255
255
255
153
0
0
102
255
255
153
0
0
102
255
255
255
153
0
0
102
255
255
255
153
0
0
102
255
255
153
0
0
102
255
255
255
153
0
0
102
255
255
255
153
0
0
102
255
255
153
0
0
102
255
255
255
153
0
0
102
255
255
255
153
0
0
102
255
255
153
0
34
119
255
255
255
153
0
0
102
255
255
255
153
0
0
102
255
255
153
0
68
238
255
255
255
153
0
0
102
255
255
255
153
0
0
102
255
221
136
0
0
68
238
255
221
136
0
0
68
238
255
221
136
0
0
68
238
153
0
34
17
34
119
255
153
0
0
0
0
102
255
153
0
0
0
0
102
187
51
119
187
119
255
255
187
51
51
51
51
119
255
187
51
51
51
51
119
255
255
255
255
255
255
255
255
255
255
255
255
255
255
255
255
255
255
255
255
